<svg width="79" height="96" viewBox="0 0 79 96" fill="none" xmlns="http://www.w3.org/2000/svg">
<path d="M12.4286 25.2753L27 18.4286V69.8572H12.4286V25.2753Z" fill="url(#paint0_linear_143_898)"/>
<path d="M32.1429 15.8289L46.7143 9V65.3412V69.8571H39.4286H32.1429V65.3412V15.8289Z" fill="url(#paint1_linear_143_898)"/>
<path d="M51.6429 6.75167L66.2143 0L65.1429 69.7517H51.6429V6.75167Z" fill="url(#paint2_linear_143_898)"/>
<path d="M6.29567 90.8572H2.83686L2.85868 88.304H6.29567C7.15401 88.304 7.87778 88.1112 8.46697 87.7257C9.05617 87.3329 9.49989 86.7619 9.79812 86.0127C10.1036 85.2634 10.2564 84.3578 10.2564 83.2958V82.5211C10.2564 81.7064 10.1691 80.9899 9.99452 80.3716C9.82722 79.7533 9.57626 79.2333 9.24166 78.8114C8.90705 78.3895 8.49607 78.073 8.00871 77.8621C7.52135 77.6439 6.96125 77.5348 6.3284 77.5348H2.7714V74.9707H6.3284C7.39041 74.9707 8.3615 75.1525 9.24166 75.5162C10.1291 75.8726 10.8965 76.3855 11.5439 77.0547C12.1913 77.7239 12.6896 78.524 13.0387 79.4551C13.3951 80.3789 13.5734 81.4082 13.5734 82.5429V83.2958C13.5734 84.4233 13.3951 85.4526 13.0387 86.3836C12.6896 87.3147 12.1913 88.1149 11.5439 88.7841C10.9038 89.446 10.1364 89.9588 9.24166 90.3225C8.35423 90.679 7.37223 90.8572 6.29567 90.8572ZM4.69174 74.9707V90.8572H1.41842V74.9707H4.69174ZM26.6344 88.304V90.8572H18.1783V88.304H26.6344ZM19.2476 74.9707V90.8572H15.9743V74.9707H19.2476ZM25.5324 81.4409V83.9287H18.1783V81.4409H25.5324ZM26.6235 74.9707V77.5348H18.1783V74.9707H26.6235ZM38.779 88.304V90.8572H30.7812V88.304H38.779ZM31.8395 74.9707V90.8572H28.5662V74.9707H31.8395ZM45.2934 74.9707V90.8572H42.031V74.9707H45.2934ZM50.1816 74.9707V77.5348H37.2192V74.9707H50.1816ZM57.3506 77.6875L53.0299 90.8572H49.5492L55.4521 74.9707H57.6671L57.3506 77.6875ZM60.9404 90.8572L56.6087 77.6875L56.2595 74.9707H58.4963L64.4319 90.8572H60.9404ZM60.744 84.9434V87.5075H52.3534V84.9434H60.744ZM68.6223 74.9707L71.6119 80.5135L74.6016 74.9707H78.3441L73.7287 82.8485L78.4641 90.8572H74.6889L71.6119 85.2052L68.535 90.8572H64.738L69.4843 82.8485L64.858 74.9707H68.6223Z" fill="#3498DB"/>
<defs>
<linearGradient id="paint0_linear_143_898" x1="19.7143" y1="18.4286" x2="19.7143" y2="69.8572" gradientUnits="userSpaceOnUse">
<stop stop-color="#3498DB"/>
<stop offset="1" stop-color="#3498DB" stop-opacity="0"/>
</linearGradient>
<linearGradient id="paint1_linear_143_898" x1="38.4845" y1="10.1939" x2="38.4845" y2="71.0511" gradientUnits="userSpaceOnUse">
<stop stop-color="#EF3636"/>
<stop offset="1" stop-color="#EF3636" stop-opacity="0"/>
</linearGradient>
<linearGradient id="paint2_linear_143_898" x1="57.8637" y1="-0.428571" x2="57.8637" y2="69.3231" gradientUnits="userSpaceOnUse">
<stop stop-color="#D9D9D9"/>
<stop offset="1" stop-color="#D9D9D9" stop-opacity="0"/>
</linearGradient>
</defs>
</svg>
